<?xml version="1.0" standalone="no"?>
<!DOCTYPE svg PUBLIC "-//W3C//DTD SVG 20010904//EN"
 "http://www.w3.org/TR/2001/REC-SVG-20010904/DTD/svg10.dtd">
<svg version="1.0" xmlns="http://www.w3.org/2000/svg"
 width="512.000000pt" height="512.000000pt" viewBox="0 0 512.000000 512.000000"
 preserveAspectRatio="xMidYMid meet">
<metadata>
Created by potrace 1.11, written by Peter Selinger 2001-2013
</metadata>
<g transform="translate(0.000000,512.000000) scale(0.100000,-0.100000)"
fill="#000000" stroke="none">
<path d="M1948 4054 c-4 -3 -112 -6 -239 -6 -128 0 -245 -5 -261 -10 -15 -6
-37 -23 -49 -39 -19 -27 -21 -44 -21 -155 -1 -68 2 -128 6 -132 4 -3 82 -7
174 -7 160 -1 169 -3 229 -30 91 -41 158 -120 188 -224 14 -48 2 -186 -16
-176 -5 4 -6 -1 -3 -9 5 -13 -24 -65 -58 -106 -27 -32 -87 -72 -99 -64 -7 4
-9 3 -6 -3 4 -6 -16 -17 -46 -27 -39 -12 -91 -16 -206 -16 -84 1 -156 -1 -158
-4 -4 -4 -7 -160 -4 -218 1 -15 21 -17 184 -20 169 -3 185 -5 232 -28 110 -54
177 -157 183 -280 6 -133 -59 -250 -171 -304 -69 -34 -105 -39 -279 -39 l-148
0 -1 -36 c-2 -86 0 -193 4 -198 3 -2 83 -5 178 -7 165 -2 177 -4 230 -29 138
-66 214 -214 184 -358 -15 -75 -39 -116 -100 -174 -81 -77 -125 -89 -327 -90
-161 0 -168 -1 -169 -20 -4 -119 2 -288 11 -305 6 -11 8 -26 4 -33 -4 -6 -3
-9 1 -4 5 4 20 -1 34 -10 24 -16 92 -18 951 -18 509 0 930 -4 936 -7 6 -4 14
-4 18 0 10 9 377 9 383 -1 2 -4 10 -4 16 0 7 4 107 8 223 8 234 0 253 5 278
68 10 25 12 291 11 1227 -1 657 2 1203 7 1212 4 9 5 19 0 22 -4 2 -7 129 -7
281 1 246 -1 280 -17 305 -37 61 29 58 -1171 56 -603 0 -1098 3 -1100 7 -1 5
-5 5 -9 1z m2072 -601 c0 -479 0 -1564 0 -2008 l0 -345 -870 0 -870 0 0 268
c-1 1918 1 2447 9 2451 5 3 397 6 870 6 l861 0 0 -372z"/>
<path d="M2779 3342 c-88 -57 -162 -153 -198 -258 -52 -154 28 -461 201 -769
43 -76 141 -228 158 -245 3 -3 32 -38 64 -78 121 -149 262 -259 367 -287 81
-22 200 -13 281 20 150 60 150 67 -2 330 -67 116 -131 218 -142 228 -30 25
-51 22 -141 -23 -45 -22 -99 -43 -120 -47 -35 -5 -42 -2 -83 38 -96 94 -210
298 -227 408 -5 29 0 38 36 75 23 23 68 57 100 75 98 56 98 78 7 231 -33 56
-60 103 -60 105 0 8 -111 190 -126 206 -24 27 -63 24 -115 -9z"/>
<path d="M1129 3529 c-49 -8 -75 -25 -104 -67 -48 -70 -28 -160 48 -216 27
-20 40 -21 332 -21 292 0 305 1 332 21 43 32 73 82 73 123 0 62 -26 113 -73
140 -41 24 -45 24 -308 25 -146 1 -281 -2 -300 -5z"/>
<path d="M1080 2619 c-87 -51 -107 -173 -40 -240 47 -47 64 -49 365 -49 326 0
341 3 383 78 42 75 23 155 -47 203 -34 24 -37 24 -330 27 -283 2 -298 1 -331
-19z"/>
<path d="M1076 1722 c-57 -31 -81 -81 -74 -152 6 -58 32 -93 89 -119 32 -14
77 -17 321 -16 264 0 286 2 317 20 56 33 76 68 76 135 0 67 -20 102 -76 135
-32 19 -52 20 -322 20 -285 1 -288 1 -331 -23z"/>
</g>
</svg>
